# xmcd CD database file
#
# Track frame offsets:
#	150
#	27146
#	46283
#	72283
#	99718
#	129317
#	157732
#	178364
#	199133
#	221933
#	240755
#	266789
#	292029
#	312951
#
# Disc length: 4435 seconds
#
# Revision: 1
# Processed by: cddbd v1.5.1PL0 Copyright (c) Steve Scherf et al.
# Submitted via: CDex 1.51
#
DISCID=cd11510e
DTITLE=Michel Pépé - Présence de l'Ange
DYEAR=2004
DGENRE=New Age
TTITLE0=Le Berceau de la Vie
TTITLE1=Les Reflets du Silence
TTITLE2=Monts Eternels
TTITLE3=Magnificience
TTITLE4=L'Oeuvre Alchimique
TTITLE5=Le Don de Soi
TTITLE6=La Vision du Coeur
TTITLE7=Un Parfum d'Ivresse
TTITLE8=Le Lac Céleste
TTITLE9=Infinie Douceur
TTITLE10=Au Delà des Cîmes
TTITLE11=Le Calice des Merveilles
TTITLE12=Présence de l'Ange
TTITLE13=L'Envol Radieux
EXTD=YEAR: 2004
EXTT0=
EXTT1=
EXTT2=
EXTT3=
EXTT4=
EXTT5=
EXTT6=
EXTT7=
EXTT8=
EXTT9=
EXTT10=
EXTT11=
EXTT12=
EXTT13=
PLAYORDER=
